<svg width="148" height="111" viewBox="0 0 148 111" fill="none" xmlns="http://www.w3.org/2000/svg">
<path d="M0.811562 111V0.695995H0.955561L59.8516 84.216L50.9236 82.2L109.676 0.695995H109.964V111H89.0836V47.784L90.3796 58.584L54.5236 109.56H54.2356L17.3716 58.584L20.9716 48.648V111H0.811562ZM127.278 100.632C127.278 97.656 128.334 95.16 130.446 93.144C132.654 91.128 135.054 90.12 137.646 90.12C140.046 90.12 142.302 91.128 144.414 93.144C146.622 95.16 147.726 97.656 147.726 100.632C147.726 103.8 146.622 106.344 144.414 108.264C142.302 110.088 140.046 111 137.646 111C135.054 111 132.654 110.088 130.446 108.264C128.334 106.344 127.278 103.8 127.278 100.632Z" fill="#78351A"/>
</svg>
